<svg version="1" xmlns="http://www.w3.org/2000/svg" width="773.333" height="773.333" viewBox="0 0 580.000000 580.000000"><path d="M341 103.8c-6 .4-7.6 1.1-11.4 4.5-3.2 2.9-4.3 5.4-8.7 18.8-2.8 8.5-5.9 17.6-6.9 20.4-2.2 6.2-6 17.5-6.5 19.5-.2.8-2 6.2-4 12-1.9 5.8-5.1 15.4-7.1 21.5-1.9 6-3.9 11.9-4.4 13-.5 1.1-2.5 7.2-4.6 13.5-4.8 14.9-8.5 26.1-9.2 28-.3.8-.6 1.7-.7 2-.1.3-.4 1.2-.7 2-.3.8-8.4 25.1-17.9 54-9.6 28.9-17.7 52.7-18.2 52.8-.4.2-.5.7-.3 1.1.3.4-.6 3.7-1.9 7.3-1.3 3.6-2.1 6.9-1.8 7.2.4.3.2.6-.4.6-.5 0-1 .6-1 1.2-.1.7-1.2 4.5-2.6 8.5-1.4 3.9-2.3 7.4-1.9 7.7.3.3 0 .6-.6.6-.7 0-1.2.9-1.2 1.9 0 1.1-.5 3.2-1.2 4.8-.7 1.5-1.3 3.2-1.3 3.8-.1.5-.5 1.7-.8 2.5-1 2.3-3.7 10.3-4.2 12-.5 2-8.4 26.1-9.2 28-.3.8-.7 1.9-.9 2.5-.1.5-1.6 5.3-3.4 10.5-4.2 12.6-4.2 12.8-4.7 18.1-.4 4.1-.1 5 2.6 7.8 1.7 1.7 3.8 3.2 4.8 3.2 1 .1 7.2.3 13.8.4 10 .2 12.7 0 16-1.6 3.8-1.8 8.1-7 8.9-10.6.1-1 .6-2.5.9-3.3.3-.8 2.5-7.4 4.8-14.5 2.3-7.2 4.4-13.5 4.8-14 .3-.6.7-1.7.9-2.5.3-1.8.7-2.9 1.5-5 .6-1.7 4-12 4.4-13.5.1-.6 3.6-11.1 7.8-23.5 4.2-12.4 7.8-23.2 8-24 .3-.8 2.1-6.2 4-12 2-5.8 3.8-11.2 4-12 .3-.8 1.6-4.9 3-9 1.5-4.1 2.8-8 2.9-8.5.2-.6.6-1.7.9-2.5.3-.8 2.6-8 5.2-16 2.5-8 5.1-15.3 5.6-16.4.6-1 1.2-2.6 1.4-3.5.4-2.2 3.5-12.1 4.5-14.6 1.9-4.6 18.3-55 18.3-56.2 0-.7.3-1.3.7-1.3.6 0 3.1-8.8 2.9-10.4 0-.5.3-1.2.8-1.5.5-.3 1.7-3.3 2.6-6.6 1-3.3 2.2-6.9 2.7-8 .5-1.1 2.1-5.8 3.6-10.5s4.5-13.7 6.6-20c2.2-6.3 4.1-12 4.2-12.5 1.1-4.8 8.3-25.2 9.1-25.7.5-.4.7-.8.3-.8-.6 0 .9-5.7 2.9-11 3.6-9.4 1.8-16.3-5-19.1-2.7-1.2-14.7-1.7-22.7-1.1zM113.5 170.4c-1.6.7-4.8 3.5-7 6.1-2.2 2.6-4.5 5.3-5 5.9-.6.6-3 3.6-5.5 6.6-2.5 3-4.7 5.7-5 6-.3.3-2.5 3-5 6s-4.9 6-5.5 6.6c-.5.6-2.8 3.3-5 6-2.2 2.6-4.9 5.8-6 7-1.1 1.2-2.9 3.5-4 5s-2.6 3.4-3.4 4.1c-1.3 1.3-3.4 3.8-11.9 14.3-2.1 2.4-6.6 7.8-10.2 12-3.6 4.2-8.3 9.8-10.5 12.4-2.2 2.7-4.7 5.7-5.5 6.6-.8 1-3.1 3.8-5 6.1-1.9 2.4-4.5 5.5-5.7 6.9-3.8 4.3-4 4.6-4.8 7.1-1.9 5.9-.9 10.1 3.7 15.3 1.3 1.4 3.7 4.2 5.3 6.2 3.7 4.6 6.7 8.1 9.7 11.6 1.3 1.4 3.7 4.4 5.5 6.5 1.7 2.1 3.9 4.8 5 6 1 1.1 3.2 3.8 5 6 1.7 2.1 3.9 4.8 5 6 1 1.2 3.4 4.1 5.3 6.4 1.9 2.3 4.2 5 5 5.9.8 1 3.1 3.7 5 6 10.1 12.3 20.6 24.5 21.2 24.8.5.2.8 1 .8 1.8s.4 1.4.8 1.4 3.9 3.9 7.7 8.6c3.9 4.7 8.4 10.1 10 11.8 1.7 1.8 3.5 4.1 4.1 5.2.6 1 3.2 3 5.7 4.3 4.2 2.1 5.1 2.2 8.9 1.2 2.4-.7 5.9-2.7 7.9-4.4 2-1.8 5.3-4.6 7.4-6.2 3.1-2.5 5.1-5.3 5.3-7.5 0-.3.5-1.6 1-3 1.6-4.2-2.1-10.6-12.8-22-.8-.9-3.3-3.8-5.5-6.5s-6.7-8.1-10-12c-3.3-3.8-8.1-9.5-10.5-12.5-2.5-3-5.2-6.1-6-7-.8-.9-3.1-3.5-5-5.9-1.9-2.4-4.4-5.3-5.5-6.5-1.1-1.1-5.1-5.9-9-10.6-6.7-8.1-10.8-13-13-15.4-3.3-3.6-8.5-10.4-8.5-11.2 0-.5 1.5-2.5 3.3-4.5 1.8-2 4.6-5.3 6.2-7.4 1.7-2.1 4.6-5.7 6.5-8 1.9-2.3 5.1-6.1 7-8.5 1.9-2.4 4-4.8 4.5-5.4.6-.6 2.8-3.3 5-6.1 2.2-2.7 4.5-5.5 5-6.1 4.8-5.4 6.5-7.5 6.5-8.3 0-.5.4-1.1.9-1.3.4-.2 3.6-3.7 7-7.8 3.3-4.1 8-9.7 10.4-12.4 2.3-2.7 4.4-5.2 4.5-5.7.4-.9 5.8-7.3 9.5-11.1.9-1 1.5-1.8 1.2-1.8-.3 0 .3-.8 1.3-1.8 8.9-9.5 8.5-13.7-2.6-24.7-9.8-9.8-13.5-11.3-20.7-8.1zM453.4 171.6c-2.1 1.5-4.6 3.5-5.5 4.5-.9 1.1-2 1.9-2.4 1.9-.3 0-2.2 1.5-4 3.4-3.7 3.8-5.8 9-5.1 12.7.3 1.3.5 2.7.5 3 .1.8 16 20.4 20.5 25.3.6.6 4.9 5.8 9.6 11.6 11.1 13.8 11.3 14 12.5 15.4.6.6 3 3.6 5.5 6.6 2.5 3 4.7 5.7 5 6 .3.3 2.3 2.7 4.5 5.5 2.1 2.7 4.2 5.2 4.5 5.5.3.3 2.3 2.7 4.5 5.5 2.1 2.7 4.2 5.2 4.5 5.5.3.3 3.4 3.9 6.8 8.2l6.2 7.6-5.8 6.9c-3.1 3.8-7 8.6-8.7 10.7-1.6 2.2-3.5 4.4-4.1 5-.6.6-4.1 4.9-7.9 9.6-3.8 4.7-7.1 8.7-7.5 9-.3.3-2.5 3-5 6s-4.8 5.6-5.2 5.8c-.5.2-.8.8-.8 1.3s-1.4 2.3-3 3.9c-1.7 1.7-2.8 3-2.5 3 .3 0-.8 1.5-2.4 3.3-3.5 3.9-5.8 6.5-9.1 10.7-1.4 1.8-2.9 3.7-3.5 4.4-.5.6-3.2 3.8-6 7.1-2.7 3.3-5.2 6.2-5.5 6.5-.3.3-1.8 2.3-3.5 4.5-1.6 2.2-3.3 4.3-3.7 4.6-1.6 1.1-1.4 7.5.4 11.1 1 2.1 2.2 3.8 2.6 3.8.4 0 3 2.1 5.7 4.6 7.6 6.8 13.1 10.2 16.1 9.8 4.7-.5 7.8-2.4 11.4-7.1 1.9-2.5 4.2-5.3 5-6.2.9-.9 3.6-4.1 6-7.1 2.5-3 5-6 5.5-6.5.6-.6 2.9-3.3 5-6 2.2-2.8 4.2-5.2 4.5-5.5.3-.3 5.1-5.9 10.5-12.5 5.5-6.6 10.8-12.9 11.7-14 .9-1.1 2.6-3.1 3.8-4.5 7.5-9 9.7-11.5 11.3-13.2.9-1 1.7-2.2 1.7-2.6 0-.4.9-1.4 2-2.2 1.1-.8 2-1.8 2-2.3 0-.5 1.2-2.1 2.8-3.6 1.5-1.5 3.8-4.2 5.2-6 1.4-1.8 3.2-4 4.1-4.9.8-1 3.8-4.5 6.6-7.9 2.9-3.4 6.1-7.2 7.2-8.4 2.7-3 5.1-8.2 5.1-11.3 0-2.8-1.8-7.4-3.8-9.5-2.5-2.6-21.7-25.3-22.7-26.8-.5-.9-1.9-2.5-3-3.7-1.1-1.2-2.9-3.3-4-4.7-6.3-7.7-27-32.5-27.5-32.9-.3-.3-2.5-3-5-6s-4.7-5.7-5-6c-.3-.3-2.4-2.8-4.5-5.5-2.2-2.8-4.3-5.2-4.6-5.5-.3-.3-3.2-3.7-6.4-7.5-3.3-3.9-6.3-7.2-6.7-7.3-.4-.2-.8-.8-.8-1.4 0-.5-.6-1.5-1.3-2.3-.7-.7-2.4-2.6-3.8-4.2-6.6-7.8-13.6-9.4-20.5-4.7z"/></svg>